<svg width="19" height="19" viewBox="0 0 19 19" fill="none" xmlns="http://www.w3.org/2000/svg">
<path fill-rule="evenodd" clip-rule="evenodd" d="M9.5072 9.48361L3.83855 18.85C3.82062 18.8803 3.78276 18.857 3.79073 18.8221L6.14985 10.3351C6.15383 10.3165 6.14586 10.2979 6.12992 10.2956L0.0209212 8.73448C-0.00697374 8.7275 -0.00697374 8.68097 0.0209212 8.67399L18.9676 3.79536C18.9975 3.78838 19.0134 3.83723 18.9855 3.85352L9.51717 9.4743C9.51319 9.47663 9.5092 9.47896 9.5072 9.48361Z" fill="#01ADEF"/>
<path fill-rule="evenodd" clip-rule="evenodd" d="M6.99833 15.3208L7.61202 14.3088C7.618 14.2995 7.62597 14.2949 7.63394 14.2949H10.7084C10.7243 14.2949 10.7363 14.2786 10.7343 14.26L10.262 10.1677C10.2601 10.1537 10.266 10.1421 10.276 10.1351L11.6668 9.30687C11.6807 9.29757 11.6986 9.30687 11.7046 9.32549L12.8085 13.3177L14.3606 18.9595C14.3686 18.9897 14.3387 19.013 14.3188 18.992L11.1467 15.9769C11.1427 15.9723 11.1387 15.9699 11.1328 15.9699L7.01626 15.3697C6.99634 15.3674 6.98637 15.3394 6.99833 15.3208Z" fill="white"/>
<path fill-rule="evenodd" clip-rule="evenodd" d="M10.4793 4.9331L9.12041 0.021898C9.11044 -0.0153257 9.06462 -0.00136695 9.0686 0.0358568L9.66834 5.14481C9.67033 5.16343 9.68628 5.17506 9.70022 5.17041L10.4614 4.97265C10.4753 4.97033 10.4853 4.95172 10.4793 4.9331Z" fill="white"/>
</svg>
