<svg width="11" height="12" viewBox="0 0 11 12" fill="none" xmlns="http://www.w3.org/2000/svg">
<rect y="0.935547" width="10.9355" height="10.9355" rx="3.28064" fill="white"/>
<path d="M4.52246 6.39261V4.19439C4.52246 3.67174 4.94615 3.24805 5.4688 3.24805C5.99145 3.24805 6.41514 3.67174 6.41514 4.19439V4.51073" stroke="#244B61" stroke-width="0.578784" stroke-linecap="round"/>
<path d="M6.41514 6.40234V8.60992C6.41514 9.13257 5.99145 9.55626 5.4688 9.55626C4.94615 9.55626 4.52246 9.13257 4.52246 8.60992V8.28974" stroke="#244B61" stroke-width="0.578784" stroke-linecap="round"/>
<path d="M5.46892 7.34971H3.25829C2.73702 7.34971 2.31445 6.92602 2.31445 6.40337C2.31445 5.88072 2.73702 5.45703 3.25829 5.45703H3.57444" stroke="#244B61" stroke-width="0.578784" stroke-linecap="round"/>
<path d="M5.46875 5.45703H7.67511C8.19874 5.45703 8.62322 5.88072 8.62322 6.40337C8.62322 6.92602 8.19874 7.34971 7.67511 7.34971H7.37189" stroke="#244B61" stroke-width="0.578784" stroke-linecap="round"/>
</svg>
