<svg width="203" height="45" viewBox="0 0 203 45" fill="none" xmlns="http://www.w3.org/2000/svg">
<path fill-rule="evenodd" clip-rule="evenodd" d="M26.3102 22.2066L10.6228 44.1385C10.5732 44.2093 10.4684 44.1548 10.4904 44.0731L17.0191 24.2004C17.0301 24.1568 17.008 24.1132 16.9639 24.1078L0.0578973 20.4525C-0.0192991 20.4361 -0.0192991 20.3272 0.0578973 20.3109L52.4908 8.88733C52.5735 8.87099 52.6176 8.98539 52.5404 9.02352L26.3378 22.1848C26.3267 22.1903 26.3157 22.1957 26.3102 22.2066Z" fill="#01ADEF"/>
<path fill-rule="evenodd" clip-rule="evenodd" d="M19.3678 35.8744L21.0661 33.5047C21.0827 33.4829 21.1047 33.472 21.1268 33.472H29.6349C29.679 33.472 29.7121 33.4339 29.7066 33.3903L28.3998 23.8081C28.3943 23.7754 28.4108 23.7482 28.4384 23.7318L32.2872 21.7925C32.3258 21.7707 32.3754 21.7925 32.3919 21.8361L35.4467 31.1841L39.7422 44.3944C39.7642 44.4652 39.6815 44.5197 39.6264 44.4707L30.848 37.4106C30.837 37.3997 30.826 37.3943 30.8094 37.3943L19.4174 35.9888C19.3623 35.9834 19.3347 35.918 19.3678 35.8744Z" fill="white"/>
<path fill-rule="evenodd" clip-rule="evenodd" d="M29.0008 11.5511L25.2402 0.0512751C25.2127 -0.0358858 25.0858 -0.00320076 25.0969 0.0839601L26.7566 12.0468C26.7621 12.0904 26.8062 12.1176 26.8448 12.1067L28.9512 11.6437C28.9898 11.6382 29.0173 11.5946 29.0008 11.5511Z" fill="white"/>
<path d="M62.0537 18.7877H58.0217V16.4117H69.0017V18.7877H64.9697V29.0117H62.0537V18.7877ZM78.2358 26.3117H72.3858L71.2698 29.0117H68.2818L73.8978 16.4117H76.7778L82.4118 29.0117H79.3518L78.2358 26.3117ZM77.3178 24.0977L75.3198 19.2737L73.3218 24.0977H77.3178ZM73.5198 15.2957C73.1598 15.2957 72.8598 15.1817 72.6198 14.9537C72.3798 14.7137 72.2598 14.4137 72.2598 14.0537C72.2598 13.6937 72.3798 13.3997 72.6198 13.1717C72.8598 12.9317 73.1598 12.8117 73.5198 12.8117C73.8798 12.8117 74.1738 12.9317 74.4018 13.1717C74.6418 13.3997 74.7618 13.6937 74.7618 14.0537C74.7618 14.4137 74.6418 14.7137 74.4018 14.9537C74.1738 15.1817 73.8798 15.2957 73.5198 15.2957ZM77.1558 15.2957C76.7958 15.2957 76.4958 15.1817 76.2558 14.9537C76.0278 14.7137 75.9138 14.4137 75.9138 14.0537C75.9138 13.6937 76.0278 13.3997 76.2558 13.1717C76.4958 12.9317 76.7958 12.8117 77.1558 12.8117C77.5158 12.8117 77.8158 12.9317 78.0558 13.1717C78.2958 13.3997 78.4158 13.6937 78.4158 14.0537C78.4158 14.4137 78.2958 14.7137 78.0558 14.9537C77.8158 15.1817 77.5158 15.2957 77.1558 15.2957ZM87.8591 29.2277C86.8631 29.2277 85.8971 29.0957 84.9611 28.8317C84.0371 28.5557 83.2931 28.2017 82.7291 27.7697L83.7191 25.5737C84.2591 25.9697 84.9011 26.2877 85.6451 26.5277C86.3891 26.7677 87.1331 26.8877 87.8771 26.8877C88.7051 26.8877 89.3171 26.7677 89.7131 26.5277C90.1091 26.2757 90.3071 25.9457 90.3071 25.5377C90.3071 25.2377 90.1871 24.9917 89.9471 24.7997C89.7191 24.5957 89.4191 24.4337 89.0471 24.3137C88.6871 24.1937 88.1951 24.0617 87.5711 23.9177C86.6111 23.6897 85.8251 23.4617 85.2131 23.2337C84.6011 23.0057 84.0731 22.6397 83.6291 22.1357C83.1971 21.6317 82.9811 20.9597 82.9811 20.1197C82.9811 19.3877 83.1791 18.7277 83.5751 18.1397C83.9711 17.5397 84.5651 17.0657 85.3571 16.7177C86.1611 16.3697 87.1391 16.1957 88.2911 16.1957C89.0951 16.1957 89.8811 16.2917 90.6491 16.4837C91.4171 16.6757 92.0891 16.9517 92.6651 17.3117L91.7651 19.5257C90.6011 18.8657 89.4371 18.5357 88.2731 18.5357C87.4571 18.5357 86.8511 18.6677 86.4551 18.9317C86.0711 19.1957 85.8791 19.5437 85.8791 19.9757C85.8791 20.4077 86.1011 20.7317 86.5451 20.9477C87.0011 21.1517 87.6911 21.3557 88.6151 21.5597C89.5751 21.7877 90.3611 22.0157 90.9731 22.2437C91.5851 22.4717 92.1071 22.8317 92.5391 23.3237C92.9831 23.8157 93.2051 24.4817 93.2051 25.3217C93.2051 26.0417 93.0011 26.7017 92.5931 27.3017C92.1971 27.8897 91.5971 28.3577 90.7931 28.7057C89.9891 29.0537 89.0111 29.2277 87.8591 29.2277ZM95.1976 16.4117H98.1136V29.0117H95.1976V16.4117ZM112.66 16.4117V29.0117H110.266L103.984 21.3617V29.0117H101.104V16.4117H103.516L109.78 24.0617V16.4117H112.66ZM126.787 24.5477V29.0117H123.871V24.5117L118.993 16.4117H122.089L125.455 22.0097L128.821 16.4117H131.683L126.787 24.5477ZM126.121 12.7937H129.145L125.887 15.3857H123.691L126.121 12.7937ZM138.845 24.5477V29.0117H135.929V24.5117L131.051 16.4117H134.147L137.513 22.0097L140.879 16.4117H143.741L138.845 24.5477ZM144.838 16.4117H147.754V26.6357H154.072V29.0117H144.838V16.4117ZM155.702 16.4117H161.426C162.794 16.4117 164 16.6757 165.044 17.2037C166.1 17.7197 166.916 18.4517 167.492 19.3997C168.08 20.3477 168.374 21.4517 168.374 22.7117C168.374 23.9717 168.08 25.0757 167.492 26.0237C166.916 26.9717 166.1 27.7097 165.044 28.2377C164 28.7537 162.794 29.0117 161.426 29.0117H155.702V16.4117ZM161.282 26.6177C162.542 26.6177 163.544 26.2697 164.288 25.5737C165.044 24.8657 165.422 23.9117 165.422 22.7117C165.422 21.5117 165.044 20.5637 164.288 19.8677C163.544 19.1597 162.542 18.8057 161.282 18.8057H158.618V26.6177H161.282ZM176.076 24.5477V29.0117H173.16V24.5117L168.282 16.4117H171.378L174.744 22.0097L178.11 16.4117H180.972L176.076 24.5477ZM192.398 26.6357V29.0117H181.382V27.1217L188.294 18.7877H181.526V16.4117H192.128V18.3017L185.234 26.6357H192.398Z" fill="white"/>
</svg>
