<svg width="1210" height="887" viewBox="0 0 1210 887" fill="none" xmlns="http://www.w3.org/2000/svg">
<g filter="url(#filter0_f_811_1248)">
<ellipse cx="358.246" cy="530.85" rx="228.605" ry="226.267" transform="rotate(-20.0171 358.246 530.85)" fill="#516CEE" fill-opacity="0.15"/>
</g>
<path d="M276.709 141.768C276.709 133.331 281.715 129.916 285.719 128.71C287.388 128.208 289.223 127.706 294.229 128.208L689.666 218.398C689.666 218.398 703.855 221.014 711.19 225.429C717.697 229.346 717.697 243.007 717.697 243.007L726.207 535L274.707 533.493C275.374 406.434 276.709 150.205 276.709 141.768Z" fill="url(#paint0_linear_811_1248)"/>
<path d="M276.707 142.543C276.707 135.718 281.374 132.004 283.707 131C279.207 134.513 278.207 139.03 278.207 142.543L275.207 534H272.707C274.04 406.358 276.707 149.368 276.707 142.543Z" fill="#15161A"/>
<path d="M274.207 533H271.707V584C271.707 597 284.04 598.833 289.707 598.5C278.507 598.9 274.707 590.5 274.207 586.5V533Z" fill="#15161A"/>
<path d="M726.207 534.5L274.207 533V585.5C274.207 594.3 282.207 598.5 287.707 598.5C293.207 598.5 692.607 585 708.207 585C723.807 585 727.04 575.667 726.707 571L726.207 534.5Z" fill="url(#paint1_linear_811_1248)"/>
<path d="M342.747 469.032C342.719 465.931 345.688 463.155 348.857 463.32L677.946 480.399C680.298 480.521 681.983 482.261 681.983 484.566L681.983 488.087C681.983 491.151 679.069 493.885 675.935 493.761L346.913 480.769C344.548 480.676 342.835 478.951 342.815 476.642L342.747 469.032Z" fill="url(#paint2_linear_811_1248)"/>
<path d="M342.6 504.201C342.514 501.101 345.431 498.27 348.602 498.376L677.953 509.307C680.307 509.385 682.024 511.092 682.067 513.397L682.133 516.918C682.19 519.981 679.327 522.769 676.192 522.703L346.985 515.858C344.618 515.809 342.873 514.116 342.81 511.808L342.6 504.201Z" fill="url(#paint3_linear_811_1248)"/>
<path d="M487.707 222.991C487.707 217.308 492.91 213.047 498.483 214.168L619.356 238.492C623.443 239.314 626.43 242.836 626.575 247.002L633.354 441.845C633.542 447.243 628.965 451.59 623.583 451.124L495.931 440.08C491.279 439.677 487.707 435.783 487.707 431.113V222.991Z" fill="url(#paint4_linear_811_1248)"/>
<path d="M340.031 326.948C340.031 323.964 342.627 321.645 345.592 321.979L443.235 332.999C445.763 333.284 447.674 335.423 447.674 337.967L447.674 344.07C447.674 347.037 445.104 349.352 442.152 349.042L344.509 338.795C341.964 338.528 340.031 336.382 340.031 333.822L340.031 326.948Z" fill="url(#paint5_linear_811_1248)"/>
<path d="M339.992 357.342C339.979 354.359 342.564 352.027 345.53 352.348L443.222 362.921C445.752 363.195 447.673 365.325 447.684 367.869L447.712 373.972C447.726 376.94 445.166 379.266 442.213 378.97L344.525 369.169C341.978 368.914 340.036 366.776 340.024 364.217L339.992 357.342Z" fill="url(#paint6_linear_811_1248)"/>
<path d="M339.547 391.326C339.602 388.441 342.081 386.201 344.958 386.439L396.72 390.718C399.349 390.936 401.357 393.158 401.308 395.795L401.185 402.312C401.131 405.184 398.675 407.42 395.811 407.204L344.039 403.308C341.393 403.109 339.364 400.878 339.415 398.226L339.547 391.326Z" fill="url(#paint7_linear_811_1248)"/>
<path d="M340.166 264.784C340.166 261.734 342.872 259.395 345.889 259.836L445.171 274.338C447.627 274.697 449.448 276.803 449.448 279.285L449.448 291.427C449.448 294.446 446.793 296.776 443.8 296.385L344.519 283.417C342.029 283.091 340.167 280.97 340.167 278.459L340.166 264.784Z" fill="url(#paint8_linear_811_1248)"/>
<g filter="url(#filter1_f_811_1248)">
<ellipse cx="811.412" cy="397.058" rx="269.64" ry="266.883" transform="rotate(-20.0171 811.412 397.058)" fill="#519BEE" fill-opacity="0.15"/>
</g>
<path d="M607.311 121.625C607.306 116.483 612.084 112.671 617.097 113.819L798.261 155.304C801.825 156.12 804.382 159.248 804.473 162.903L812.472 483.495C812.584 487.963 809.011 491.657 804.541 491.694L615.744 493.262C611.303 493.299 607.682 489.711 607.678 485.27L607.311 121.625Z" fill="url(#paint9_linear_811_1248)"/>
<path d="M615.236 138.483C615.231 133.426 620.028 129.682 625.048 130.826L792.207 167.5C795.759 168.309 796.926 172.475 797.015 176.053L804.382 472.092C804.491 476.473 800.925 480.094 796.46 480.137L623.656 481.792C619.212 481.835 615.586 478.314 615.581 473.953L615.236 138.483Z" fill="url(#paint10_linear_811_1248)"/>
<path d="M625.922 374.683C625.915 372.601 627.839 370.814 629.939 370.952L798.496 382.044C800.135 382.152 801.329 383.417 801.325 385.043L801.318 388.374C801.313 390.435 799.419 392.203 797.336 392.088L628.805 382.795C627.156 382.704 625.945 381.443 625.94 379.812L625.922 374.683Z" fill="url(#paint11_linear_811_1248)"/>
<path d="M625.819 399.87C625.798 397.795 627.702 395.981 629.8 396.076L798.443 403.763C800.09 403.838 801.299 405.086 801.304 406.716L801.315 410.612C801.321 412.669 799.44 414.462 797.359 414.383L628.757 407.95C627.107 407.887 625.888 406.648 625.871 405.019L625.819 399.87Z" fill="url(#paint12_linear_811_1248)"/>
<path d="M708.775 207.29C708.821 203.486 712.295 200.65 716.031 201.365L794.093 216.318C796.952 216.865 799.027 219.354 799.051 222.265L800.092 347.573C800.122 351.156 797.074 353.995 793.502 353.712L712.776 347.306C709.572 347.052 707.113 344.357 707.152 341.143L708.775 207.29Z" fill="url(#paint13_linear_811_1248)"/>
<path d="M626.321 274.695C626.304 272.671 628.052 271.082 630.066 271.292L696.389 278.22C698.106 278.399 699.415 279.84 699.43 281.567L699.464 285.708C699.481 287.722 697.75 289.307 695.745 289.113L629.426 282.71C627.697 282.543 626.374 281.098 626.359 279.361L626.321 274.695Z" fill="url(#paint14_linear_811_1248)"/>
<path d="M626.467 295.322C626.441 293.297 628.182 291.701 630.197 291.902L696.551 298.526C698.269 298.697 699.584 300.132 699.606 301.859L699.66 305.999C699.686 308.013 697.962 309.606 695.956 309.422L629.609 303.322C627.88 303.163 626.549 301.724 626.527 299.987L626.467 295.322Z" fill="url(#paint15_linear_811_1248)"/>
<path d="M624.593 232.522C624.576 230.453 626.399 228.85 628.449 229.132L695.904 238.414C697.572 238.643 698.82 240.062 698.834 241.747L698.903 249.987C698.92 252.035 697.131 253.631 695.098 253.383L627.652 245.142C625.961 244.935 624.685 243.506 624.671 241.802L624.593 232.522Z" fill="url(#paint16_linear_811_1248)"/>
<path d="M683.102 428.885C683.126 426.981 684.711 425.469 686.615 425.536L753.444 427.895C755.244 427.959 756.681 429.418 756.717 431.219L756.879 439.449C756.917 441.385 755.329 442.961 753.393 442.907L686.293 441.058C684.44 441.007 682.971 439.477 682.994 437.624L683.102 428.885Z" fill="url(#paint17_linear_811_1248)"/>
<path d="M626.887 316.729C626.91 314.538 628.778 312.822 630.963 312.983L670.281 315.893C672.278 316.04 673.816 317.714 673.796 319.716L673.747 324.534C673.725 326.714 671.875 328.427 669.699 328.282L630.377 325.661C628.368 325.527 626.813 323.847 626.834 321.834L626.887 316.729Z" fill="url(#paint18_linear_811_1248)"/>
<ellipse cx="724.321" cy="146.094" rx="2.5" ry="3" transform="rotate(-2.21626 724.321 146.094)" fill="url(#paint19_linear_811_1248)"/>
<ellipse cx="724.321" cy="146.094" rx="1.5" ry="2" transform="rotate(-2.21626 724.321 146.094)" fill="url(#paint20_linear_811_1248)"/>
<path d="M786.271 94.7342C786.317 89.3824 791.504 85.5845 796.62 87.1561L885.588 114.488C888.947 115.519 891.239 118.622 891.239 122.136L891.211 383.61C891.21 388.044 887.604 391.631 883.17 391.609L791.736 391.143C787.307 391.12 783.739 387.503 783.777 383.074L786.271 94.7342Z" fill="url(#paint21_linear_811_1248)"/>
<path d="M790.435 101.997C790.449 96.624 795.65 92.792 800.786 94.3712L834.173 104.638C835.513 105.05 836.604 106.03 837.157 107.318L838.791 111.127C839.952 113.83 843.839 113.666 844.767 110.874C845.315 109.226 847.079 108.316 848.74 108.824L877.769 117.717C878.008 117.79 878.242 117.873 878.47 117.974C879.294 118.338 881.404 119.325 882.595 120.384C884.376 121.968 885.063 123.25 886.03 125.429C887.344 128.387 887.417 133.519 887.421 133.922C887.421 133.941 887.421 133.957 887.421 133.976L886.728 375.92C886.715 380.354 883.1 383.931 878.666 383.897L797.666 383.273C793.263 383.239 789.716 379.654 789.727 375.252L790.435 101.997Z" fill="url(#paint22_linear_811_1248)"/>
<path d="M807.345 131.562C807.38 128.81 809.977 126.812 812.646 127.483L868.14 141.428C870.042 141.906 871.373 143.62 871.364 145.581L870.995 229.8C870.984 232.373 868.713 234.35 866.163 234.006L809.874 226.414C807.739 226.126 806.154 224.289 806.182 222.135L807.345 131.562Z" fill="url(#paint23_linear_811_1248)"/>
<path d="M806.46 256.132C806.475 254.931 807.5 253.992 808.698 254.081L869.361 258.605C870.459 258.687 871.303 259.609 871.289 260.709L871.259 263.037C871.244 264.237 870.22 265.176 869.023 265.087L808.359 260.608C807.261 260.527 806.415 259.605 806.429 258.504L806.46 256.132Z" fill="url(#paint24_linear_811_1248)"/>
<path d="M805.276 327.023C805.242 325.819 806.233 324.837 807.437 324.882L868.231 327.169C869.328 327.21 870.204 328.094 870.235 329.191L870.302 331.522C870.336 332.725 869.346 333.707 868.142 333.663L807.349 331.416C806.253 331.376 805.375 330.491 805.344 329.394L805.276 327.023Z" fill="url(#paint25_linear_811_1248)"/>
<path d="M806.293 269.131C806.308 267.93 807.333 266.991 808.531 267.08L869.194 271.604C870.292 271.686 871.136 272.608 871.122 273.708L871.092 276.036C871.077 277.236 870.053 278.175 868.856 278.086L808.192 273.608C807.094 273.526 806.248 272.604 806.262 271.503L806.293 269.131Z" fill="url(#paint26_linear_811_1248)"/>
<path d="M805.59 338.036C805.556 336.826 806.557 335.841 807.767 335.896L868.554 338.659C869.644 338.708 870.511 339.59 870.542 340.68L870.608 343.009C870.643 344.219 869.642 345.204 868.433 345.149L807.647 342.426C806.557 342.377 805.689 341.495 805.658 340.405L805.59 338.036Z" fill="url(#paint27_linear_811_1248)"/>
<path d="M805.44 349.734C805.405 348.523 806.407 347.539 807.617 347.594L868.404 350.357C869.493 350.406 870.36 351.288 870.391 352.378L870.458 354.707C870.492 355.917 869.492 356.901 868.282 356.847L807.497 354.124C806.406 354.075 805.539 353.193 805.508 352.102L805.44 349.734Z" fill="url(#paint28_linear_811_1248)"/>
<path d="M815.608 237.437C815.623 236.209 816.692 235.261 817.913 235.392L860.087 239.926C861.155 240.041 861.961 240.95 861.947 242.024L861.878 247.359C861.863 248.579 860.806 249.525 859.591 249.405L817.413 245.243C816.337 245.137 815.521 244.225 815.535 243.143L815.608 237.437Z" fill="url(#paint29_linear_811_1248)"/>
<path d="M817.07 308.037C817.052 306.827 818.066 305.857 819.274 305.927L861.543 308.4C862.632 308.464 863.488 309.358 863.504 310.45L863.581 315.792C863.598 316.995 862.596 317.962 861.394 317.902L819.132 315.801C818.035 315.746 817.168 314.849 817.153 313.75L817.07 308.037Z" fill="url(#paint30_linear_811_1248)"/>
<path d="M825.334 284.57C825.376 283.253 826.5 282.233 827.814 282.318L851.914 283.886C853.168 283.967 854.132 285.029 854.092 286.285L854.002 289.148C853.96 290.455 852.852 291.472 851.547 291.401L827.438 290.101C826.173 290.032 825.195 288.966 825.235 287.7L825.334 284.57Z" fill="url(#paint31_linear_811_1248)"/>
<ellipse cx="842.208" cy="107.283" rx="2.5" ry="3" transform="rotate(-2.21626 842.208 107.283)" fill="url(#paint32_linear_811_1248)"/>
<ellipse cx="842.208" cy="107.283" rx="1.5" ry="2" transform="rotate(-2.21626 842.208 107.283)" fill="url(#paint33_linear_811_1248)"/>
<defs>
<filter id="filter0_f_811_1248" x="0.721069" y="175.116" width="715.05" height="711.469" filterUnits="userSpaceOnUse" color-interpolation-filters="sRGB">
<feFlood flood-opacity="0" result="BackgroundImageFix"/>
<feBlend mode="normal" in="SourceGraphic" in2="BackgroundImageFix" result="shape"/>
<feGaussianBlur stdDeviation="64.5652" result="effect1_foregroundBlur_811_1248"/>
</filter>
<filter id="filter1_f_811_1248" x="412.89" y="0.647827" width="797.044" height="792.821" filterUnits="userSpaceOnUse" color-interpolation-filters="sRGB">
<feFlood flood-opacity="0" result="BackgroundImageFix"/>
<feBlend mode="normal" in="SourceGraphic" in2="BackgroundImageFix" result="shape"/>
<feGaussianBlur stdDeviation="64.5652" result="effect1_foregroundBlur_811_1248"/>
</filter>
<linearGradient id="paint0_linear_811_1248" x1="718.198" y1="331.898" x2="274.587" y2="423.222" gradientUnits="userSpaceOnUse">
<stop stop-color="#4A4E52"/>
<stop offset="0.520833" stop-color="#1E2225"/>
<stop offset="1" stop-color="#3E4148"/>
</linearGradient>
<linearGradient id="paint1_linear_811_1248" x1="726.707" y1="548.5" x2="274.707" y2="566" gradientUnits="userSpaceOnUse">
<stop stop-color="#42464A"/>
<stop offset="0.520833" stop-color="#1F2326"/>
<stop offset="1" stop-color="#3E4148"/>
</linearGradient>
<linearGradient id="paint2_linear_811_1248" x1="338.707" y1="475" x2="680.438" y2="435.188" gradientUnits="userSpaceOnUse">
<stop stop-color="#4B556E"/>
<stop offset="1" stop-color="#2B313B"/>
</linearGradient>
<linearGradient id="paint3_linear_811_1248" x1="338.707" y1="504" x2="675.559" y2="464.956" gradientUnits="userSpaceOnUse">
<stop stop-color="#4A556D"/>
<stop offset="0.609375" stop-color="#2A2F3A"/>
<stop offset="1" stop-color="#4C5469"/>
</linearGradient>
<linearGradient id="paint4_linear_811_1248" x1="471.368" y1="386.737" x2="668.956" y2="315.502" gradientUnits="userSpaceOnUse">
<stop stop-color="#4B566F"/>
<stop offset="0.286458" stop-color="#3A4254"/>
<stop offset="0.588542" stop-color="#2B3347"/>
<stop offset="1" stop-color="#394255"/>
</linearGradient>
<linearGradient id="paint5_linear_811_1248" x1="338.707" y1="330" x2="448.707" y2="343" gradientUnits="userSpaceOnUse">
<stop stop-color="#4B566F"/>
<stop offset="1" stop-color="#2A2F39"/>
</linearGradient>
<linearGradient id="paint6_linear_811_1248" x1="338.707" y1="361" x2="448.707" y2="371" gradientUnits="userSpaceOnUse">
<stop stop-color="#4A556E"/>
<stop offset="1" stop-color="#2B313B"/>
</linearGradient>
<linearGradient id="paint7_linear_811_1248" x1="338.722" y1="395.271" x2="402.021" y2="399.953" gradientUnits="userSpaceOnUse">
<stop stop-color="#4E7BE1"/>
<stop offset="1" stop-color="#2D4671"/>
</linearGradient>
<linearGradient id="paint8_linear_811_1248" x1="341.707" y1="272.5" x2="451.707" y2="287" gradientUnits="userSpaceOnUse">
<stop stop-color="#4B556F"/>
<stop offset="1" stop-color="#282C36"/>
</linearGradient>
<linearGradient id="paint9_linear_811_1248" x1="605.876" y1="304.598" x2="811.054" y2="313.591" gradientUnits="userSpaceOnUse">
<stop stop-color="#393C43"/>
<stop offset="1" stop-color="#1B1C21"/>
</linearGradient>
<linearGradient id="paint10_linear_811_1248" x1="613.901" y1="305.702" x2="803.06" y2="314.04" gradientUnits="userSpaceOnUse">
<stop stop-color="#323438"/>
<stop offset="1" stop-color="#1B1D25"/>
</linearGradient>
<linearGradient id="paint11_linear_811_1248" x1="623.82" y1="378.824" x2="801.603" y2="363.634" gradientUnits="userSpaceOnUse">
<stop stop-color="#4B556E"/>
<stop offset="1" stop-color="#2B313B"/>
</linearGradient>
<linearGradient id="paint12_linear_811_1248" x1="623.808" y1="399.828" x2="799.15" y2="386.256" gradientUnits="userSpaceOnUse">
<stop stop-color="#4A556D"/>
<stop offset="0.609375" stop-color="#2A2F3A"/>
<stop offset="1" stop-color="#4C5469"/>
</linearGradient>
<linearGradient id="paint13_linear_811_1248" x1="696.169" y1="312.952" x2="824.122" y2="265.269" gradientUnits="userSpaceOnUse">
<stop stop-color="#4B566F"/>
<stop offset="0.286458" stop-color="#3A4254"/>
<stop offset="0.588542" stop-color="#2B3347"/>
<stop offset="1" stop-color="#394255"/>
</linearGradient>
<linearGradient id="paint14_linear_811_1248" x1="625.439" y1="276.774" x2="700.159" y2="284.976" gradientUnits="userSpaceOnUse">
<stop stop-color="#4B566F"/>
<stop offset="1" stop-color="#2A2F39"/>
</linearGradient>
<linearGradient id="paint15_linear_811_1248" x1="625.615" y1="297.811" x2="700.318" y2="303.977" gradientUnits="userSpaceOnUse">
<stop stop-color="#4A556E"/>
<stop offset="1" stop-color="#2B313B"/>
</linearGradient>
<linearGradient id="paint16_linear_811_1248" x1="625.682" y1="237.75" x2="700.411" y2="246.969" gradientUnits="userSpaceOnUse">
<stop stop-color="#4B556F"/>
<stop offset="1" stop-color="#282C36"/>
</linearGradient>
<linearGradient id="paint17_linear_811_1248" x1="684.137" y1="438.419" x2="759.417" y2="436.924" gradientUnits="userSpaceOnUse">
<stop stop-color="#4B556F"/>
<stop offset="1" stop-color="#282C36"/>
</linearGradient>
<linearGradient id="paint18_linear_811_1248" x1="626.288" y1="319.655" x2="674.364" y2="322.821" gradientUnits="userSpaceOnUse">
<stop stop-color="#4E7BE1"/>
<stop offset="1" stop-color="#2D4671"/>
</linearGradient>
<linearGradient id="paint19_linear_811_1248" x1="726.821" y1="143.594" x2="723.321" y2="149.094" gradientUnits="userSpaceOnUse">
<stop stop-color="#3D4B6A"/>
<stop offset="1" stop-color="#383F50"/>
</linearGradient>
<linearGradient id="paint20_linear_811_1248" x1="725.821" y1="144.428" x2="723.393" y2="147.862" gradientUnits="userSpaceOnUse">
<stop stop-color="#374A73"/>
<stop offset="1" stop-color="#252A34"/>
</linearGradient>
<linearGradient id="paint21_linear_811_1248" x1="767.207" y1="299.283" x2="946.707" y2="224.283" gradientUnits="userSpaceOnUse">
<stop stop-color="#393C43"/>
<stop offset="0.458333" stop-color="#363840"/>
<stop offset="0.765625" stop-color="#1B1C21"/>
<stop offset="1" stop-color="#35383F"/>
</linearGradient>
<linearGradient id="paint22_linear_811_1248" x1="885.621" y1="118.423" x2="787.79" y2="376.686" gradientUnits="userSpaceOnUse">
<stop stop-color="#2C2E34"/>
<stop offset="0.328125" stop-color="#1E2028"/>
<stop offset="1" stop-color="#2F3136"/>
</linearGradient>
<linearGradient id="paint23_linear_811_1248" x1="798.786" y1="204.901" x2="888.511" y2="172.783" gradientUnits="userSpaceOnUse">
<stop stop-color="#4B566F"/>
<stop offset="0.286458" stop-color="#3A4254"/>
<stop offset="0.588542" stop-color="#2B3347"/>
<stop offset="1" stop-color="#394255"/>
</linearGradient>
<linearGradient id="paint24_linear_811_1248" x1="805.866" y1="259.218" x2="870.585" y2="267.319" gradientUnits="userSpaceOnUse">
<stop stop-color="#4B566F"/>
<stop offset="1" stop-color="#2A2F39"/>
</linearGradient>
<linearGradient id="paint25_linear_811_1248" x1="804.811" y1="330.121" x2="869.809" y2="335.537" gradientUnits="userSpaceOnUse">
<stop stop-color="#4B566F"/>
<stop offset="1" stop-color="#2A2F39"/>
</linearGradient>
<linearGradient id="paint26_linear_811_1248" x1="805.699" y1="272.217" x2="870.418" y2="280.318" gradientUnits="userSpaceOnUse">
<stop stop-color="#4B566F"/>
<stop offset="1" stop-color="#2A2F39"/>
</linearGradient>
<linearGradient id="paint27_linear_811_1248" x1="805.124" y1="341.117" x2="870.122" y2="346.532" gradientUnits="userSpaceOnUse">
<stop stop-color="#4B566F"/>
<stop offset="1" stop-color="#2A2F39"/>
</linearGradient>
<linearGradient id="paint28_linear_811_1248" x1="804.974" y1="352.814" x2="869.972" y2="358.23" gradientUnits="userSpaceOnUse">
<stop stop-color="#4B566F"/>
<stop offset="1" stop-color="#2A2F39"/>
</linearGradient>
<linearGradient id="paint29_linear_811_1248" x1="815.976" y1="243.714" x2="862.087" y2="246.951" gradientUnits="userSpaceOnUse">
<stop stop-color="#4B556F"/>
<stop offset="1" stop-color="#282C36"/>
</linearGradient>
<linearGradient id="paint30_linear_811_1248" x1="817.61" y1="314.351" x2="863.791" y2="316.329" gradientUnits="userSpaceOnUse">
<stop stop-color="#4B556F"/>
<stop offset="1" stop-color="#282C36"/>
</linearGradient>
<linearGradient id="paint31_linear_811_1248" x1="823.213" y1="286.409" x2="852.679" y2="288.978" gradientUnits="userSpaceOnUse">
<stop stop-color="#4E7BE1"/>
<stop offset="1" stop-color="#2D4671"/>
</linearGradient>
<linearGradient id="paint32_linear_811_1248" x1="844.708" y1="104.783" x2="841.208" y2="110.283" gradientUnits="userSpaceOnUse">
<stop stop-color="#3D4B6A"/>
<stop offset="1" stop-color="#383F50"/>
</linearGradient>
<linearGradient id="paint33_linear_811_1248" x1="843.708" y1="105.617" x2="841.28" y2="109.051" gradientUnits="userSpaceOnUse">
<stop stop-color="#374A73"/>
<stop offset="1" stop-color="#252A34"/>
</linearGradient>
</defs>
</svg>
